<svg width="22" height="32" viewBox="0 0 22 32" fill="none" xmlns="http://www.w3.org/2000/svg">
<path d="M21.6797 15.5859C21.6797 18.0078 21.4844 20.1953 21.0938 22.1484C20.7031 24.1016 20.0625 25.7656 19.1719 27.1406C18.2969 28.5156 17.1484 29.5703 15.7266 30.3047C14.3203 31.0391 12.5938 31.4062 10.5469 31.4062C8.46875 31.4062 6.75 31.0547 5.39062 30.3516C4.03125 29.6328 2.95312 28.6094 2.15625 27.2812C1.35938 25.9375 0.796875 24.3047 0.46875 22.3828C0.15625 20.4453 0 18.2578 0 15.8203C0 13.4141 0.195312 11.2344 0.585938 9.28125C0.992188 7.3125 1.63281 5.64062 2.50781 4.26562C3.39844 2.89062 4.54688 1.83594 5.95312 1.10156C7.375 0.367188 9.10156 0 11.1328 0C13.2109 0 14.9297 0.359375 16.2891 1.07812C17.6641 1.78125 18.75 2.80469 19.5469 4.14844C20.3438 5.47656 20.8984 7.10938 21.2109 9.04688C21.5234 10.9688 21.6797 13.1484 21.6797 15.5859ZM15.4688 15.8906C15.4688 14.4531 15.4297 13.1875 15.3516 12.0938C15.2734 10.9844 15.1484 10.0234 14.9766 9.21094C14.8203 8.39844 14.6172 7.71094 14.3672 7.14844C14.1328 6.58594 13.8438 6.14062 13.5 5.8125C13.1562 5.46875 12.7656 5.22656 12.3281 5.08594C11.8906 4.94531 11.4062 4.875 10.875 4.875C9.95312 4.875 9.1875 5.10156 8.57812 5.55469C7.98438 5.99219 7.50781 6.65625 7.14844 7.54688C6.80469 8.4375 6.5625 9.54688 6.42188 10.875C6.28125 12.2031 6.21094 13.75 6.21094 15.5156C6.21094 17.6719 6.29688 19.4609 6.46875 20.8828C6.64062 22.2891 6.90625 23.4141 7.26562 24.2578C7.64062 25.0859 8.11719 25.6719 8.69531 26.0156C9.27344 26.3438 9.96875 26.5078 10.7812 26.5078C11.3906 26.5078 11.9297 26.4141 12.3984 26.2266C12.8672 26.0234 13.2734 25.7266 13.6172 25.3359C13.9766 24.9453 14.2734 24.4531 14.5078 23.8594C14.7422 23.2656 14.9297 22.5781 15.0703 21.7969C15.2266 21.0156 15.3281 20.1328 15.375 19.1484C15.4375 18.1641 15.4688 17.0781 15.4688 15.8906Z" fill="white"/>
</svg>
