<svg width="19" height="31" viewBox="0 0 19 31" fill="none" xmlns="http://www.w3.org/2000/svg">
<path d="M18.6562 28.1953C18.6562 28.6328 18.6328 29.0078 18.5859 29.3203C18.5391 29.6172 18.4688 29.8594 18.375 30.0469C18.2969 30.2188 18.2031 30.3438 18.0938 30.4219C17.9844 30.5 17.8594 30.5391 17.7188 30.5391H0.984375C0.859375 30.5391 0.742188 30.5 0.632812 30.4219C0.523438 30.3438 0.421875 30.2188 0.328125 30.0469C0.25 29.8594 0.1875 29.6172 0.140625 29.3203C0.09375 29.0078 0.0703125 28.6328 0.0703125 28.1953C0.0703125 27.7422 0.0859375 27.3672 0.117188 27.0703C0.164062 26.7578 0.226562 26.5078 0.304688 26.3203C0.398438 26.1328 0.5 26 0.609375 25.9219C0.71875 25.8281 0.84375 25.7812 0.984375 25.7812H6.63281V6.04688L1.75781 8.74219C1.39844 8.91406 1.10156 9.02344 0.867188 9.07031C0.648438 9.10156 0.46875 9.05469 0.328125 8.92969C0.203125 8.78906 0.117188 8.55469 0.0703125 8.22656C0.0234375 7.89844 0 7.4375 0 6.84375C0 6.46875 0.0078125 6.16406 0.0234375 5.92969C0.0390625 5.67969 0.078125 5.46875 0.140625 5.29688C0.203125 5.125 0.289062 4.98438 0.398438 4.875C0.507812 4.76562 0.65625 4.64844 0.84375 4.52344L7.35938 0.304688C7.4375 0.242188 7.53125 0.195312 7.64062 0.164062C7.76562 0.117188 7.92188 0.0859375 8.10938 0.0703125C8.29688 0.0390625 8.53906 0.0234375 8.83594 0.0234375C9.14844 0.0078125 9.54688 0 10.0312 0C10.625 0 11.1016 0.015625 11.4609 0.046875C11.8359 0.0625 12.1172 0.101562 12.3047 0.164062C12.4922 0.210938 12.6172 0.28125 12.6797 0.375C12.7422 0.46875 12.7734 0.585938 12.7734 0.726562V25.7812H17.7188C17.8594 25.7812 17.9844 25.8281 18.0938 25.9219C18.2188 26 18.3203 26.1328 18.3984 26.3203C18.4922 26.5078 18.5547 26.7578 18.5859 27.0703C18.6328 27.3672 18.6562 27.7422 18.6562 28.1953Z" fill="white"/>
</svg>
