<svg width="21" height="31" viewBox="0 0 21 31" fill="none" xmlns="http://www.w3.org/2000/svg">
<path d="M20.3438 28.3594C20.3438 28.8125 20.3203 29.2031 20.2734 29.5312C20.2422 29.8438 20.1875 30.1016 20.1094 30.3047C20.0312 30.5078 19.9297 30.6562 19.8047 30.75C19.6797 30.8281 19.5391 30.8672 19.3828 30.8672H1.94531C1.60156 30.8672 1.30469 30.8359 1.05469 30.7734C0.804688 30.7109 0.601562 30.5938 0.445312 30.4219C0.289062 30.2344 0.171875 29.9688 0.09375 29.625C0.03125 29.2812 0 28.8359 0 28.2891C0 27.7734 0.0234375 27.3359 0.0703125 26.9766C0.117188 26.6016 0.203125 26.2734 0.328125 25.9922C0.453125 25.6953 0.609375 25.4141 0.796875 25.1484C1 24.8672 1.25781 24.5625 1.57031 24.2344L6.82031 18.6094C7.86719 17.5156 8.71094 16.5234 9.35156 15.6328C9.99219 14.7266 10.4922 13.9062 10.8516 13.1719C11.2109 12.4219 11.4531 11.7344 11.5781 11.1094C11.7188 10.4844 11.7891 9.89062 11.7891 9.32812C11.7891 8.8125 11.7031 8.32812 11.5312 7.875C11.375 7.40625 11.1328 7 10.8047 6.65625C10.4922 6.3125 10.0938 6.04688 9.60938 5.85938C9.125 5.65625 8.55469 5.55469 7.89844 5.55469C6.97656 5.55469 6.15625 5.67188 5.4375 5.90625C4.73438 6.14062 4.10938 6.40625 3.5625 6.70312C3.03125 6.98438 2.58594 7.25 2.22656 7.5C1.86719 7.73438 1.58594 7.85156 1.38281 7.85156C1.24219 7.85156 1.11719 7.80469 1.00781 7.71094C0.914062 7.61719 0.835938 7.46094 0.773438 7.24219C0.710938 7.02344 0.65625 6.73438 0.609375 6.375C0.578125 6 0.5625 5.54688 0.5625 5.01562C0.5625 4.65625 0.570312 4.35938 0.585938 4.125C0.617188 3.875 0.65625 3.66406 0.703125 3.49219C0.75 3.30469 0.8125 3.14844 0.890625 3.02344C0.96875 2.88281 1.10156 2.71875 1.28906 2.53125C1.49219 2.34375 1.85156 2.10938 2.36719 1.82812C2.89844 1.53125 3.54688 1.25 4.3125 0.984375C5.07812 0.703125 5.92188 0.46875 6.84375 0.28125C7.76562 0.09375 8.72656 0 9.72656 0C11.3047 0 12.6797 0.203125 13.8516 0.609375C15.0391 1 16.0234 1.55469 16.8047 2.27344C17.5859 2.97656 18.1641 3.82031 18.5391 4.80469C18.9297 5.77344 19.125 6.82031 19.125 7.94531C19.125 8.92969 19.0312 9.89844 18.8438 10.8516C18.6562 11.8047 18.2656 12.8359 17.6719 13.9453C17.0781 15.0391 16.2422 16.2578 15.1641 17.6016C14.0859 18.9297 12.6562 20.4766 10.875 22.2422L7.33594 25.875H19.2891C19.4453 25.875 19.5859 25.9219 19.7109 26.0156C19.8516 26.1094 19.9688 26.2578 20.0625 26.4609C20.1562 26.6484 20.2266 26.9062 20.2734 27.2344C20.3203 27.5469 20.3438 27.9219 20.3438 28.3594Z" fill="white"/>
</svg>
