<svg width="21" height="32" viewBox="0 0 21 32" fill="none" xmlns="http://www.w3.org/2000/svg">
<path d="M20.2734 21.9844C20.2734 23.5 19.9844 24.8438 19.4062 26.0156C18.8281 27.1875 18.0234 28.1719 16.9922 28.9688C15.9609 29.7656 14.7266 30.375 13.2891 30.7969C11.8516 31.2031 10.2812 31.4062 8.57812 31.4062C7.54688 31.4062 6.57812 31.3281 5.67188 31.1719C4.76562 31.0312 3.96094 30.8516 3.25781 30.6328C2.57031 30.4141 2 30.1875 1.54688 29.9531C1.09375 29.7188 0.796875 29.5391 0.65625 29.4141C0.515625 29.2891 0.40625 29.1484 0.328125 28.9922C0.265625 28.8359 0.203125 28.6562 0.140625 28.4531C0.09375 28.2344 0.0546875 27.9688 0.0234375 27.6562C0.0078125 27.3281 0 26.9375 0 26.4844C0 25.7344 0.0625 25.2188 0.1875 24.9375C0.3125 24.6406 0.5 24.4922 0.75 24.4922C0.90625 24.4922 1.17188 24.6016 1.54688 24.8203C1.9375 25.0234 2.42969 25.25 3.02344 25.5C3.61719 25.7344 4.3125 25.9609 5.10938 26.1797C5.90625 26.3828 6.8125 26.4844 7.82812 26.4844C8.6875 26.4844 9.44531 26.3828 10.1016 26.1797C10.7578 25.9766 11.3125 25.6953 11.7656 25.3359C12.2344 24.9609 12.5781 24.5156 12.7969 24C13.0312 23.4688 13.1484 22.8828 13.1484 22.2422C13.1484 21.5391 13.0078 20.9062 12.7266 20.3438C12.4609 19.7812 12.0547 19.3047 11.5078 18.9141C10.9766 18.5078 10.2969 18.1953 9.46875 17.9766C8.65625 17.7578 7.69531 17.6484 6.58594 17.6484H3.96094C3.75781 17.6484 3.58594 17.625 3.44531 17.5781C3.30469 17.5156 3.1875 17.3984 3.09375 17.2266C3 17.0547 2.92969 16.8203 2.88281 16.5234C2.85156 16.2109 2.83594 15.8125 2.83594 15.3281C2.83594 14.875 2.85156 14.5078 2.88281 14.2266C2.92969 13.9297 2.99219 13.7031 3.07031 13.5469C3.16406 13.3906 3.27344 13.2812 3.39844 13.2188C3.53906 13.1562 3.70312 13.125 3.89062 13.125H6.53906C7.44531 13.125 8.25 13.0234 8.95312 12.8203C9.65625 12.6016 10.2422 12.2969 10.7109 11.9062C11.1953 11.5156 11.5625 11.0469 11.8125 10.5C12.0625 9.9375 12.1875 9.32031 12.1875 8.64844C12.1875 8.13281 12.1016 7.64844 11.9297 7.19531C11.7578 6.72656 11.5 6.32812 11.1562 6C10.8281 5.65625 10.3984 5.39062 9.86719 5.20312C9.33594 5 8.71094 4.89844 7.99219 4.89844C7.17969 4.89844 6.41406 5.02344 5.69531 5.27344C4.97656 5.50781 4.32812 5.77344 3.75 6.07031C3.1875 6.35156 2.70312 6.61719 2.29688 6.86719C1.90625 7.11719 1.61719 7.24219 1.42969 7.24219C1.30469 7.24219 1.19531 7.21875 1.10156 7.17188C1.00781 7.10938 0.929688 7 0.867188 6.84375C0.804688 6.6875 0.757812 6.46094 0.726562 6.16406C0.695312 5.86719 0.679688 5.48438 0.679688 5.01562C0.679688 4.625 0.6875 4.30469 0.703125 4.05469C0.71875 3.78906 0.75 3.57031 0.796875 3.39844C0.84375 3.22656 0.898438 3.07812 0.960938 2.95312C1.03906 2.82812 1.15625 2.69531 1.3125 2.55469C1.46875 2.39844 1.78906 2.17188 2.27344 1.875C2.75781 1.57812 3.36719 1.28906 4.10156 1.00781C4.83594 0.726562 5.67969 0.492188 6.63281 0.304688C7.60156 0.101562 8.64844 0 9.77344 0C11.2422 0 12.5391 0.171875 13.6641 0.515625C14.8047 0.859375 15.7578 1.35938 16.5234 2.01562C17.3047 2.65625 17.8906 3.45312 18.2812 4.40625C18.6875 5.34375 18.8906 6.40625 18.8906 7.59375C18.8906 8.51562 18.7734 9.375 18.5391 10.1719C18.3047 10.9688 17.9609 11.6797 17.5078 12.3047C17.0547 12.9297 16.4844 13.4609 15.7969 13.8984C15.125 14.3359 14.3438 14.6641 13.4531 14.8828V14.9531C14.5156 15.0781 15.4688 15.3516 16.3125 15.7734C17.1562 16.1797 17.8672 16.6953 18.4453 17.3203C19.0391 17.9453 19.4922 18.6562 19.8047 19.4531C20.1172 20.2344 20.2734 21.0781 20.2734 21.9844Z" fill="white"/>
</svg>
