<svg width="23" height="31" viewBox="0 0 23 31" fill="none" xmlns="http://www.w3.org/2000/svg">
<path d="M22.5 21.75C22.5 22.5469 22.4141 23.1562 22.2422 23.5781C22.0859 23.9844 21.8672 24.1875 21.5859 24.1875H18.8906V29.6719C18.8906 29.8281 18.8438 29.9688 18.75 30.0938C18.6562 30.2031 18.4922 30.2969 18.2578 30.375C18.0234 30.4531 17.7188 30.5078 17.3438 30.5391C16.9688 30.5859 16.4844 30.6094 15.8906 30.6094C15.3281 30.6094 14.8516 30.5859 14.4609 30.5391C14.0859 30.5078 13.7812 30.4531 13.5469 30.375C13.3281 30.2969 13.1719 30.2031 13.0781 30.0938C13 29.9688 12.9609 29.8281 12.9609 29.6719V24.1875H1.35938C1.14062 24.1875 0.945312 24.1641 0.773438 24.1172C0.601562 24.0547 0.453125 23.9297 0.328125 23.7422C0.21875 23.5391 0.132812 23.2578 0.0703125 22.8984C0.0234375 22.5234 0 22.0312 0 21.4219C0 20.9219 0.0078125 20.4922 0.0234375 20.1328C0.0546875 19.7578 0.09375 19.4219 0.140625 19.125C0.203125 18.8281 0.28125 18.5469 0.375 18.2812C0.484375 18.0156 0.617188 17.7344 0.773438 17.4375L10.1953 0.820312C10.2734 0.679688 10.4062 0.5625 10.5938 0.46875C10.7812 0.359375 11.0391 0.273438 11.3672 0.210938C11.7109 0.132812 12.1406 0.078125 12.6562 0.046875C13.1719 0.015625 13.7969 0 14.5312 0C15.3281 0 16.0078 0.0234375 16.5703 0.0703125C17.1328 0.101562 17.5781 0.164062 17.9062 0.257812C18.25 0.335938 18.5 0.4375 18.6562 0.5625C18.8125 0.6875 18.8906 0.835938 18.8906 1.00781V19.2656H21.5859C21.8359 19.2656 22.0469 19.4609 22.2188 19.8516C22.4062 20.2266 22.5 20.8594 22.5 21.75ZM12.9609 5.32031H12.9141L4.92188 19.2656H12.9609V5.32031Z" fill="white"/>
</svg>
