<svg width="20" height="31" viewBox="0 0 20 31" fill="none" xmlns="http://www.w3.org/2000/svg">
<path d="M19.875 20.4844C19.875 22.125 19.5859 23.5938 19.0078 24.8906C18.4453 26.1719 17.6406 27.2578 16.5938 28.1484C15.5625 29.0234 14.3125 29.6953 12.8438 30.1641C11.3906 30.6328 9.77344 30.8672 7.99219 30.8672C7.05469 30.8672 6.16406 30.8047 5.32031 30.6797C4.47656 30.5703 3.71875 30.4297 3.04688 30.2578C2.375 30.0703 1.82031 29.8906 1.38281 29.7188C0.960938 29.5312 0.679688 29.3828 0.539062 29.2734C0.414062 29.1484 0.320312 29.0156 0.257812 28.875C0.195312 28.7344 0.140625 28.5703 0.09375 28.3828C0.0625 28.1797 0.0390625 27.9297 0.0234375 27.6328C0.0078125 27.3359 0 26.9844 0 26.5781C0 26.1406 0.015625 25.7734 0.046875 25.4766C0.078125 25.1641 0.125 24.9141 0.1875 24.7266C0.265625 24.5391 0.351562 24.4062 0.445312 24.3281C0.539062 24.25 0.648438 24.2109 0.773438 24.2109C0.929688 24.2109 1.16406 24.3047 1.47656 24.4922C1.80469 24.6641 2.22656 24.8594 2.74219 25.0781C3.27344 25.2969 3.91406 25.5 4.66406 25.6875C5.41406 25.8594 6.3125 25.9453 7.35938 25.9453C8.26562 25.9453 9.08594 25.8516 9.82031 25.6641C10.5703 25.4766 11.2031 25.1797 11.7188 24.7734C12.2344 24.3516 12.6328 23.8281 12.9141 23.2031C13.1953 22.5781 13.3359 21.8281 13.3359 20.9531C13.3359 20.2031 13.2188 19.5391 12.9844 18.9609C12.75 18.3672 12.3828 17.8672 11.8828 17.4609C11.3828 17.0547 10.7344 16.75 9.9375 16.5469C9.14062 16.3438 8.17188 16.2422 7.03125 16.2422C6.125 16.2422 5.29688 16.2891 4.54688 16.3828C3.8125 16.4766 3.11719 16.5234 2.46094 16.5234C2.00781 16.5234 1.67969 16.4141 1.47656 16.1953C1.28906 15.9609 1.19531 15.5391 1.19531 14.9297V1.75781C1.19531 1.13281 1.3125 0.6875 1.54688 0.421875C1.79688 0.140625 2.1875 0 2.71875 0H17.0859C17.2266 0 17.3594 0.046875 17.4844 0.140625C17.6094 0.234375 17.7109 0.382812 17.7891 0.585938C17.8828 0.789062 17.9453 1.0625 17.9766 1.40625C18.0234 1.73438 18.0469 2.13281 18.0469 2.60156C18.0469 3.53906 17.9609 4.21875 17.7891 4.64062C17.6328 5.0625 17.3984 5.27344 17.0859 5.27344H6.30469V11.7656C6.85156 11.7031 7.39062 11.6641 7.92188 11.6484C8.46875 11.6328 9.03906 11.625 9.63281 11.625C11.2734 11.625 12.7266 11.8203 13.9922 12.2109C15.2734 12.5859 16.3438 13.1484 17.2031 13.8984C18.0781 14.6328 18.7422 15.5547 19.1953 16.6641C19.6484 17.7578 19.875 19.0312 19.875 20.4844Z" fill="white"/>
</svg>
