<svg width="21" height="32" viewBox="0 0 21 32" fill="none" xmlns="http://www.w3.org/2000/svg">
<path d="M20.9062 20.7188C20.9062 22.25 20.6719 23.6719 20.2031 24.9844C19.7344 26.2812 19.0469 27.4062 18.1406 28.3594C17.2344 29.2969 16.1172 30.0391 14.7891 30.5859C13.4609 31.1172 11.9297 31.3828 10.1953 31.3828C8.78906 31.3828 7.5625 31.2188 6.51562 30.8906C5.46875 30.5781 4.5625 30.125 3.79688 29.5312C3.03125 28.9219 2.40625 28.1875 1.92188 27.3281C1.4375 26.4688 1.04688 25.5 0.75 24.4219C0.46875 23.3438 0.273438 22.1719 0.164062 20.9062C0.0546875 19.6406 0 18.2969 0 16.875C0 15.6875 0.0546875 14.4453 0.164062 13.1484C0.289062 11.8516 0.515625 10.5781 0.84375 9.32812C1.1875 8.07812 1.66406 6.89062 2.27344 5.76562C2.88281 4.625 3.66406 3.63281 4.61719 2.78906C5.58594 1.92969 6.75 1.25 8.10938 0.75C9.48438 0.25 11.1094 0 12.9844 0C13.5781 0 14.1719 0.0390625 14.7656 0.117188C15.375 0.179688 15.9375 0.265625 16.4531 0.375C16.9688 0.484375 17.4062 0.609375 17.7656 0.75C18.125 0.890625 18.3594 1.01562 18.4688 1.125C18.5938 1.21875 18.6875 1.32812 18.75 1.45312C18.8125 1.57812 18.8594 1.71875 18.8906 1.875C18.9375 2.01562 18.9688 2.19531 18.9844 2.41406C19 2.63281 19.0078 2.89844 19.0078 3.21094C19.0078 3.69531 18.9922 4.10156 18.9609 4.42969C18.9453 4.74219 18.9062 4.99219 18.8438 5.17969C18.7812 5.35156 18.6953 5.47656 18.5859 5.55469C18.4766 5.63281 18.3438 5.67188 18.1875 5.67188C18 5.67188 17.7578 5.625 17.4609 5.53125C17.1641 5.42188 16.8047 5.30469 16.3828 5.17969C15.9609 5.05469 15.4609 4.94531 14.8828 4.85156C14.3203 4.75781 13.6641 4.71094 12.9141 4.71094C11.6484 4.71094 10.5781 4.94531 9.70312 5.41406C8.82812 5.88281 8.11719 6.52344 7.57031 7.33594C7.02344 8.13281 6.625 9.0625 6.375 10.125C6.125 11.1875 5.99219 12.3125 5.97656 13.5C6.32031 13.2812 6.71094 13.0625 7.14844 12.8438C7.60156 12.625 8.08594 12.4375 8.60156 12.2812C9.13281 12.125 9.70312 12 10.3125 11.9062C10.9219 11.7969 11.5703 11.7422 12.2578 11.7422C13.7891 11.7422 15.1016 11.9531 16.1953 12.375C17.2891 12.7969 18.1797 13.3984 18.8672 14.1797C19.5703 14.9609 20.0859 15.9062 20.4141 17.0156C20.7422 18.125 20.9062 19.3594 20.9062 20.7188ZM14.8594 21.3047C14.8594 20.5078 14.7891 19.8125 14.6484 19.2188C14.5078 18.6094 14.2812 18.1016 13.9688 17.6953C13.6562 17.2734 13.2422 16.9609 12.7266 16.7578C12.2109 16.5391 11.5859 16.4297 10.8516 16.4297C10.4141 16.4297 9.98438 16.4688 9.5625 16.5469C9.14062 16.625 8.72656 16.7344 8.32031 16.875C7.91406 17.0156 7.52344 17.1875 7.14844 17.3906C6.77344 17.5781 6.42188 17.7812 6.09375 18C6.09375 19.6719 6.1875 21.0703 6.375 22.1953C6.5625 23.3047 6.83594 24.1875 7.19531 24.8438C7.57031 25.5 8.03125 25.9688 8.57812 26.25C9.14062 26.5156 9.78906 26.6484 10.5234 26.6484C11.2422 26.6484 11.8672 26.5156 12.3984 26.25C12.9453 25.9844 13.3984 25.6094 13.7578 25.125C14.1172 24.6406 14.3906 24.0781 14.5781 23.4375C14.7656 22.7812 14.8594 22.0703 14.8594 21.3047Z" fill="white"/>
</svg>
