<svg width="21" height="31" viewBox="0 0 21 31" fill="none" xmlns="http://www.w3.org/2000/svg">
<path d="M20.4844 2.60156C20.4844 3.05469 20.4688 3.45312 20.4375 3.79688C20.4062 4.125 20.3594 4.4375 20.2969 4.73438C20.25 5.01562 20.1797 5.28906 20.0859 5.55469C19.9922 5.80469 19.8828 6.07812 19.7578 6.375L9.77344 29.5078C9.67969 29.7109 9.55469 29.875 9.39844 30C9.25781 30.125 9.05469 30.2266 8.78906 30.3047C8.52344 30.3672 8.17969 30.4062 7.75781 30.4219C7.35156 30.4531 6.84375 30.4688 6.23438 30.4688C5.40625 30.4688 4.75 30.4375 4.26562 30.375C3.78125 30.3281 3.42188 30.25 3.1875 30.1406C2.96875 30.0156 2.85156 29.8672 2.83594 29.6953C2.82031 29.5078 2.875 29.2812 3 29.0156L13.7344 5.34375H0.984375C0.65625 5.34375 0.40625 5.13281 0.234375 4.71094C0.078125 4.27344 0 3.58594 0 2.64844C0 2.17969 0.0234375 1.78125 0.0703125 1.45312C0.117188 1.10938 0.179688 0.828125 0.257812 0.609375C0.351562 0.390625 0.453125 0.234375 0.5625 0.140625C0.6875 0.046875 0.828125 0 0.984375 0H19.0078C19.2891 0 19.5234 0.03125 19.7109 0.09375C19.8984 0.140625 20.0469 0.257812 20.1562 0.445312C20.2656 0.632812 20.3438 0.898438 20.3906 1.24219C20.4531 1.58594 20.4844 2.03906 20.4844 2.60156Z" fill="white"/>
</svg>
