<svg width="22" height="32" viewBox="0 0 22 32" fill="none" xmlns="http://www.w3.org/2000/svg">
<path d="M21.4453 22.7344C21.4453 24.1094 21.2031 25.3359 20.7188 26.4141C20.25 27.4922 19.5469 28.4062 18.6094 29.1562C17.6875 29.8906 16.5391 30.4531 15.1641 30.8438C13.7891 31.2188 12.2031 31.4062 10.4062 31.4062C8.6875 31.4062 7.17969 31.2344 5.88281 30.8906C4.58594 30.5469 3.5 30.0469 2.625 29.3906C1.75 28.7188 1.09375 27.8984 0.65625 26.9297C0.21875 25.9453 0 24.8203 0 23.5547C0 22.6953 0.125 21.8906 0.375 21.1406C0.640625 20.375 1.02344 19.6719 1.52344 19.0312C2.03906 18.375 2.67188 17.7656 3.42188 17.2031C4.1875 16.625 5.0625 16.0781 6.04688 15.5625C5.25 15.125 4.53125 14.6562 3.89062 14.1562C3.25 13.6406 2.70312 13.0859 2.25 12.4922C1.79688 11.8828 1.45312 11.2188 1.21875 10.5C0.984375 9.78125 0.867188 9 0.867188 8.15625C0.867188 6.9375 1.07812 5.83594 1.5 4.85156C1.9375 3.85156 2.57812 2.99219 3.42188 2.27344C4.28125 1.53906 5.35156 0.976562 6.63281 0.585938C7.91406 0.195312 9.39844 0 11.0859 0C12.7578 0 14.1875 0.179688 15.375 0.539062C16.5781 0.898438 17.5625 1.40625 18.3281 2.0625C19.0938 2.71875 19.6562 3.50781 20.0156 4.42969C20.3906 5.33594 20.5781 6.34375 20.5781 7.45312C20.5781 8.1875 20.4531 8.90625 20.2031 9.60938C19.9688 10.2969 19.6328 10.9531 19.1953 11.5781C18.7578 12.2031 18.2188 12.7969 17.5781 13.3594C16.9375 13.9062 16.2109 14.4062 15.3984 14.8594C16.3516 15.3594 17.2031 15.8906 17.9531 16.4531C18.7031 17.0156 19.3359 17.625 19.8516 18.2812C20.3672 18.9219 20.7578 19.6094 21.0234 20.3438C21.3047 21.0781 21.4453 21.875 21.4453 22.7344ZM14.6484 8.01562C14.6484 7.46875 14.5703 6.97656 14.4141 6.53906C14.2578 6.10156 14.0078 5.73438 13.6641 5.4375C13.3359 5.125 12.9219 4.89062 12.4219 4.73438C11.9375 4.57812 11.3594 4.5 10.6875 4.5C9.375 4.5 8.39844 4.80469 7.75781 5.41406C7.11719 6.00781 6.79688 6.83594 6.79688 7.89844C6.79688 8.39844 6.875 8.85938 7.03125 9.28125C7.20312 9.70312 7.46094 10.1016 7.80469 10.4766C8.14844 10.8516 8.59375 11.2188 9.14062 11.5781C9.6875 11.9375 10.3359 12.3203 11.0859 12.7266C12.2266 12.0547 13.1016 11.3359 13.7109 10.5703C14.3359 9.80469 14.6484 8.95312 14.6484 8.01562ZM15.3516 23.1562C15.3516 22.5781 15.25 22.0547 15.0469 21.5859C14.8594 21.1016 14.5547 20.6484 14.1328 20.2266C13.7266 19.8047 13.2109 19.3984 12.5859 19.0078C11.9609 18.6172 11.2344 18.2188 10.4062 17.8125C9.6875 18.2031 9.05469 18.5938 8.50781 18.9844C7.96094 19.375 7.50781 19.7891 7.14844 20.2266C6.78906 20.6484 6.51562 21.1016 6.32812 21.5859C6.15625 22.0547 6.07031 22.5625 6.07031 23.1094C6.07031 24.3281 6.46094 25.2578 7.24219 25.8984C8.03906 26.5391 9.21875 26.8594 10.7812 26.8594C12.3125 26.8594 13.4531 26.5312 14.2031 25.875C14.9688 25.2188 15.3516 24.3125 15.3516 23.1562Z" fill="white"/>
</svg>
