<svg width="21" height="32" viewBox="0 0 21 32" fill="none" xmlns="http://www.w3.org/2000/svg">
<path d="M20.9297 14.3203C20.9297 15.5547 20.8672 16.8359 20.7422 18.1641C20.6172 19.4766 20.375 20.7656 20.0156 22.0312C19.6719 23.2969 19.1875 24.5 18.5625 25.6406C17.9531 26.7812 17.1562 27.7812 16.1719 28.6406C15.2031 29.4844 14.0156 30.1562 12.6094 30.6562C11.2188 31.1562 9.57031 31.4062 7.66406 31.4062C6.99219 31.4062 6.32031 31.3594 5.64844 31.2656C4.99219 31.1719 4.39062 31.0547 3.84375 30.9141C3.29688 30.7734 2.82812 30.625 2.4375 30.4688C2.0625 30.3125 1.78906 30.1562 1.61719 30C1.44531 29.8281 1.32031 29.5859 1.24219 29.2734C1.16406 28.9609 1.125 28.5234 1.125 27.9609C1.125 27.4453 1.13281 27.0312 1.14844 26.7188C1.17969 26.4062 1.22656 26.1641 1.28906 25.9922C1.36719 25.8203 1.45312 25.7109 1.54688 25.6641C1.65625 25.6016 1.78125 25.5703 1.92188 25.5703C2.10938 25.5703 2.375 25.625 2.71875 25.7344C3.0625 25.8438 3.47656 25.9688 3.96094 26.1094C4.46094 26.25 5.02344 26.375 5.64844 26.4844C6.27344 26.5938 6.96875 26.6484 7.73438 26.6484C9.04688 26.6484 10.1562 26.4141 11.0625 25.9453C11.9688 25.4766 12.7031 24.8438 13.2656 24.0469C13.8281 23.25 14.2422 22.3281 14.5078 21.2812C14.7734 20.2344 14.9219 19.1328 14.9531 17.9766C14.2344 18.4297 13.3672 18.8281 12.3516 19.1719C11.3359 19.5 10.1719 19.6641 8.85938 19.6641C7.25 19.6641 5.88281 19.4531 4.75781 19.0312C3.63281 18.6094 2.71875 18 2.01562 17.2031C1.3125 16.4062 0.796875 15.4375 0.46875 14.2969C0.15625 13.1562 0 11.8672 0 10.4297C0 8.91406 0.226562 7.52344 0.679688 6.25781C1.13281 4.97656 1.80469 3.875 2.69531 2.95312C3.58594 2.01562 4.69531 1.28906 6.02344 0.773438C7.35156 0.257812 8.89062 0 10.6406 0C12.0469 0 13.2734 0.164062 14.3203 0.492188C15.3828 0.820312 16.2891 1.28906 17.0391 1.89844C17.8047 2.50781 18.4375 3.25 18.9375 4.125C19.4531 4.98438 19.8516 5.94531 20.1328 7.00781C20.4297 8.07031 20.6328 9.21875 20.7422 10.4531C20.8672 11.6875 20.9297 12.9766 20.9297 14.3203ZM14.8125 13.4766C14.8125 11.8047 14.7188 10.4062 14.5312 9.28125C14.3438 8.15625 14.0625 7.25781 13.6875 6.58594C13.3125 5.91406 12.8438 5.4375 12.2812 5.15625C11.7188 4.875 11.0625 4.73438 10.3125 4.73438C9.57812 4.73438 8.94531 4.86719 8.41406 5.13281C7.88281 5.38281 7.4375 5.74219 7.07812 6.21094C6.73438 6.67969 6.47656 7.23438 6.30469 7.875C6.13281 8.51562 6.04688 9.21875 6.04688 9.98438C6.04688 10.8125 6.11719 11.5469 6.25781 12.1875C6.41406 12.8125 6.64844 13.3359 6.96094 13.7578C7.28906 14.1641 7.71094 14.4688 8.22656 14.6719C8.74219 14.875 9.36719 14.9766 10.1016 14.9766C11.0078 14.9766 11.8594 14.8438 12.6562 14.5781C13.4688 14.2969 14.1875 13.9297 14.8125 13.4766Z" fill="white"/>
</svg>
