<svg width="52" height="32" viewBox="0 0 52 32" fill="none" xmlns="http://www.w3.org/2000/svg">
<path d="M27.5553 28.5234C27.7428 29.0859 27.86 29.5312 27.9069 29.8594C27.9537 30.1875 27.8912 30.4375 27.7194 30.6094C27.5475 30.7656 27.2428 30.8594 26.8053 30.8906C26.3678 30.9375 25.7662 30.9609 25.0006 30.9609C24.2037 30.9609 23.5787 30.9453 23.1256 30.9141C22.6881 30.8984 22.3522 30.8594 22.1178 30.7969C21.8834 30.7188 21.7194 30.6172 21.6256 30.4922C21.5319 30.3672 21.4537 30.2031 21.3912 30L19.3522 23.9062H7.96154L6.03966 29.8359C5.97716 30.0547 5.89123 30.2422 5.78185 30.3984C5.6881 30.5391 5.52404 30.6562 5.28966 30.75C5.07091 30.8281 4.7506 30.8828 4.32873 30.9141C3.92248 30.9453 3.38341 30.9609 2.71154 30.9609C1.99279 30.9609 1.43029 30.9375 1.02404 30.8906C0.617788 30.8438 0.336538 30.7344 0.180288 30.5625C0.0240385 30.375 -0.030649 30.1172 0.016226 29.7891C0.063101 29.4609 0.180288 29.0234 0.367788 28.4766L9.71935 1.57031C9.8131 1.30469 9.92248 1.09375 10.0475 0.9375C10.1725 0.765625 10.3678 0.640625 10.6334 0.5625C10.9147 0.46875 11.2975 0.414062 11.7819 0.398438C12.2662 0.367188 12.9069 0.351562 13.7037 0.351562C14.6256 0.351562 15.36 0.367188 15.9069 0.398438C16.4537 0.414062 16.8756 0.46875 17.1725 0.5625C17.485 0.640625 17.7037 0.765625 17.8287 0.9375C17.9694 1.10938 18.0865 1.34375 18.1803 1.64062L27.5553 28.5234ZM13.6334 6.28125H13.61L9.32091 19.1719H17.9225L13.6334 6.28125Z" fill="#313131"/>
<path d="M51.275 26.2266C51.275 26.6172 51.2593 26.9531 51.2281 27.2344C51.2125 27.5 51.1812 27.7344 51.1343 27.9375C51.0875 28.125 51.025 28.2891 50.9468 28.4297C50.8687 28.5703 50.7437 28.7344 50.5718 28.9219C50.4 29.0938 50.064 29.3203 49.564 29.6016C49.0797 29.8828 48.4781 30.1562 47.7593 30.4219C47.0562 30.6719 46.2437 30.8828 45.3218 31.0547C44.4156 31.2266 43.4312 31.3125 42.3687 31.3125C40.2906 31.3125 38.4156 30.9922 36.7437 30.3516C35.0718 29.7109 33.65 28.7578 32.4781 27.4922C31.3062 26.2109 30.4078 24.6172 29.7828 22.7109C29.1578 20.8047 28.8453 18.5859 28.8453 16.0547C28.8453 13.4766 29.189 11.1875 29.8765 9.1875C30.564 7.1875 31.525 5.50781 32.7593 4.14844C33.9937 2.78906 35.4703 1.75781 37.189 1.05469C38.9234 0.351562 40.8297 0 42.9078 0C43.7515 0 44.564 0.0703125 45.3453 0.210938C46.1265 0.351562 46.8453 0.539062 47.5015 0.773438C48.1734 0.992188 48.775 1.25 49.3062 1.54688C49.8375 1.84375 50.2047 2.10156 50.4078 2.32031C50.6265 2.52344 50.775 2.69531 50.8531 2.83594C50.9312 2.97656 50.9937 3.15625 51.0406 3.375C51.0875 3.59375 51.1187 3.85156 51.1343 4.14844C51.1656 4.44531 51.1812 4.8125 51.1812 5.25C51.1812 5.71875 51.1656 6.11719 51.1343 6.44531C51.1031 6.77344 51.0484 7.03906 50.9703 7.24219C50.8922 7.44531 50.7984 7.59375 50.689 7.6875C50.5797 7.78125 50.4547 7.82812 50.314 7.82812C50.0797 7.82812 49.7828 7.69531 49.4234 7.42969C49.064 7.14844 48.5953 6.84375 48.0172 6.51562C47.4547 6.17188 46.775 5.86719 45.9781 5.60156C45.1968 5.32031 44.2593 5.17969 43.1656 5.17969C41.9625 5.17969 40.8843 5.42969 39.9312 5.92969C38.9937 6.41406 38.189 7.11719 37.5172 8.03906C36.8609 8.94531 36.3609 10.0469 36.0172 11.3438C35.6734 12.6406 35.5015 14.1016 35.5015 15.7266C35.5015 17.5078 35.6812 19.0547 36.0406 20.3672C36.4156 21.6641 36.939 22.7344 37.6109 23.5781C38.2984 24.4219 39.1187 25.0547 40.0718 25.4766C41.0406 25.8828 42.1265 26.0859 43.3297 26.0859C44.4234 26.0859 45.3687 25.9609 46.1656 25.7109C46.9625 25.4453 47.6422 25.1562 48.2047 24.8438C48.7828 24.5312 49.2515 24.25 49.6109 24C49.9859 23.75 50.275 23.625 50.4781 23.625C50.6343 23.625 50.7593 23.6562 50.8531 23.7188C50.9468 23.7812 51.025 23.9062 51.0875 24.0938C51.15 24.2812 51.1968 24.5469 51.2281 24.8906C51.2593 25.2188 51.275 25.6641 51.275 26.2266Z" fill="#313131"/>
</svg>
