<svg width="12" height="5" viewBox="0 0 12 5" fill="none" xmlns="http://www.w3.org/2000/svg">
<path d="M11.9297 2.39062C11.9297 3.29688 11.8438 3.92969 11.6719 4.28906C11.5 4.64844 11.2266 4.82812 10.8516 4.82812H1.10156C0.710938 4.82812 0.429688 4.64844 0.257812 4.28906C0.0859375 3.91406 0 3.28125 0 2.39062C0 1.51562 0.0859375 0.898438 0.257812 0.539062C0.429688 0.179688 0.710938 0 1.10156 0H10.8516C11.0391 0 11.1953 0.0390625 11.3203 0.117188C11.4609 0.195312 11.5781 0.328125 11.6719 0.515625C11.7656 0.703125 11.8281 0.953125 11.8594 1.26562C11.9062 1.57812 11.9297 1.95312 11.9297 2.39062Z" fill="white"/>
</svg>
