<svg width="59" height="35" viewBox="0 0 59 35" fill="none" xmlns="http://www.w3.org/2000/svg">
<mask id="path-1-inside-1_37_5" fill="white">
<path d="M47.0833 10.0125L45.3208 8.25L38.3333 15.2375L31.3458 8.25L29.5833 10.0125L36.5708 17L29.5833 23.9875L31.3458 25.75L38.3333 18.7625L45.3208 25.75L47.0833 23.9875L40.0958 17L47.0833 10.0125Z"/>
</mask>
<path d="M47.0833 10.0125L45.3208 8.25L38.3333 15.2375L31.3458 8.25L29.5833 10.0125L36.5708 17L29.5833 23.9875L31.3458 25.75L38.3333 18.7625L45.3208 25.75L47.0833 23.9875L40.0958 17L47.0833 10.0125Z" fill="white"/>
<path d="M47.0833 10.0125L57.6899 20.6191L68.2965 10.0125L57.6899 -0.594103L47.0833 10.0125ZM45.3208 8.25L55.9274 -2.3566L45.3208 -12.9632L34.7142 -2.3566L45.3208 8.25ZM38.3333 15.2375L27.7267 25.8441L38.3333 36.4507L48.9399 25.8441L38.3333 15.2375ZM31.3458 8.25L41.9524 -2.3566L31.3458 -12.9632L20.7392 -2.3566L31.3458 8.25ZM29.5833 10.0125L18.9767 -0.594103L8.37013 10.0125L18.9767 20.6191L29.5833 10.0125ZM36.5708 17L47.1774 27.6066L57.784 17L47.1774 6.3934L36.5708 17ZM29.5833 23.9875L18.9767 13.3809L8.37013 23.9875L18.9767 34.5941L29.5833 23.9875ZM31.3458 25.75L20.7392 36.3566L31.3458 46.9632L41.9524 36.3566L31.3458 25.75ZM38.3333 18.7625L48.9399 8.1559L38.3333 -2.4507L27.7267 8.1559L38.3333 18.7625ZM45.3208 25.75L34.7142 36.3566L45.3208 46.9632L55.9274 36.3566L45.3208 25.75ZM47.0833 23.9875L57.6899 34.5941L68.2965 23.9875L57.6899 13.3809L47.0833 23.9875ZM40.0958 17L29.4892 6.3934L18.8826 17L29.4892 27.6066L40.0958 17ZM57.6899 -0.594103L55.9274 -2.3566L34.7142 18.8566L36.4767 20.6191L57.6899 -0.594103ZM34.7142 -2.3566L27.7267 4.6309L48.9399 25.8441L55.9274 18.8566L34.7142 -2.3566ZM48.9399 4.6309L41.9524 -2.3566L20.7392 18.8566L27.7267 25.8441L48.9399 4.6309ZM20.7392 -2.3566L18.9767 -0.594103L40.1899 20.6191L41.9524 18.8566L20.7392 -2.3566ZM18.9767 20.6191L25.9642 27.6066L47.1774 6.3934L40.1899 -0.594103L18.9767 20.6191ZM25.9642 6.3934L18.9767 13.3809L40.1899 34.5941L47.1774 27.6066L25.9642 6.3934ZM18.9767 34.5941L20.7392 36.3566L41.9524 15.1434L40.1899 13.3809L18.9767 34.5941ZM41.9524 36.3566L48.9399 29.3691L27.7267 8.1559L20.7392 15.1434L41.9524 36.3566ZM27.7267 29.3691L34.7142 36.3566L55.9274 15.1434L48.9399 8.1559L27.7267 29.3691ZM55.9274 36.3566L57.6899 34.5941L36.4767 13.3809L34.7142 15.1434L55.9274 36.3566ZM57.6899 13.3809L50.7024 6.3934L29.4892 27.6066L36.4767 34.5941L57.6899 13.3809ZM50.7024 27.6066L57.6899 20.6191L36.4767 -0.594103L29.4892 6.3934L50.7024 27.6066Z" fill="white" mask="url(#path-1-inside-1_37_5)"/>
<path d="M56.833 1.5V33.5H16.2363L2.00879 18.2852L16.2793 1.5H56.833Z" stroke="white" stroke-width="3"/>
</svg>
