<svg width="23" height="25" viewBox="0 0 23 25" fill="none" xmlns="http://www.w3.org/2000/svg">
<path d="M14.4375 21.3516C14.4375 20.6953 14.375 20.1484 14.25 19.7109C14.1406 19.2734 13.9531 18.9141 13.6875 18.6328C13.4375 18.3516 13.0859 18.1484 12.6328 18.0234C12.1953 17.8984 11.6562 17.8359 11.0156 17.8359C10.3594 17.8359 9.8125 17.8984 9.375 18.0234C8.9375 18.1484 8.58594 18.3516 8.32031 18.6328C8.07031 18.9141 7.89062 19.2734 7.78125 19.7109C7.67188 20.1484 7.61719 20.6953 7.61719 21.3516C7.61719 22.0078 7.67188 22.5625 7.78125 23.0156C7.89062 23.4844 8.07031 23.8594 8.32031 24.1406C8.58594 24.4219 8.9375 24.625 9.375 24.75C9.8125 24.8906 10.3594 24.9609 11.0156 24.9609C11.6562 24.9609 12.1953 24.8906 12.6328 24.75C13.0859 24.625 13.4375 24.4219 13.6875 24.1406C13.9531 23.8594 14.1406 23.4844 14.25 23.0156C14.375 22.5625 14.4375 22.0078 14.4375 21.3516ZM22.0781 12.4922C22.0781 12.0703 22.0547 11.7109 22.0078 11.4141C21.9609 11.1328 21.8984 10.8984 21.8203 10.7109C21.7578 10.5391 21.6719 10.4141 21.5625 10.3359C21.4531 10.2578 21.3359 10.2188 21.2109 10.2188H0.84375C0.703125 10.2188 0.578125 10.2578 0.46875 10.3359C0.359375 10.4141 0.265625 10.5391 0.1875 10.7109C0.125 10.8984 0.078125 11.1328 0.046875 11.4141C0.015625 11.7109 0 12.0703 0 12.4922C0 12.9141 0.015625 13.2656 0.046875 13.5469C0.078125 13.8438 0.125 14.0781 0.1875 14.25C0.265625 14.4219 0.359375 14.5469 0.46875 14.625C0.578125 14.7031 0.703125 14.7422 0.84375 14.7422H21.2109C21.3359 14.7422 21.4531 14.7031 21.5625 14.625C21.6719 14.5469 21.7578 14.4219 21.8203 14.25C21.8984 14.0781 21.9609 13.8438 22.0078 13.5469C22.0547 13.2656 22.0781 12.9141 22.0781 12.4922ZM14.4375 3.49219C14.4375 2.85156 14.375 2.30469 14.25 1.85156C14.1406 1.41406 13.9531 1.05469 13.6875 0.773438C13.4375 0.507812 13.0859 0.3125 12.6328 0.1875C12.1953 0.0625 11.6562 0 11.0156 0C10.3594 0 9.8125 0.0625 9.375 0.1875C8.9375 0.3125 8.58594 0.507812 8.32031 0.773438C8.07031 1.05469 7.89062 1.41406 7.78125 1.85156C7.67188 2.30469 7.61719 2.85156 7.61719 3.49219C7.61719 4.16406 7.67188 4.72656 7.78125 5.17969C7.89062 5.64844 8.07031 6.02344 8.32031 6.30469C8.58594 6.58594 8.9375 6.78906 9.375 6.91406C9.8125 7.03906 10.3594 7.10156 11.0156 7.10156C11.6562 7.10156 12.1953 7.03906 12.6328 6.91406C13.0859 6.78906 13.4375 6.58594 13.6875 6.30469C13.9531 6.02344 14.1406 5.64844 14.25 5.17969C14.375 4.72656 14.4375 4.16406 14.4375 3.49219Z" fill="white"/>
</svg>
