<svg width="20" height="14" viewBox="0 0 20 14" fill="none" xmlns="http://www.w3.org/2000/svg">
<path d="M19.9453 2.22656C19.9453 3.05469 19.8516 3.64062 19.6641 3.98438C19.4922 4.32812 19.2422 4.5 18.9141 4.5H1.03125C0.703125 4.5 0.445312 4.32812 0.257812 3.98438C0.0859375 3.64062 0 3.05469 0 2.22656C0 1.42969 0.078125 0.859375 0.234375 0.515625C0.40625 0.171875 0.671875 0 1.03125 0H18.9141C19.2734 0 19.5312 0.171875 19.6875 0.515625C19.8594 0.859375 19.9453 1.42969 19.9453 2.22656ZM19.9453 11.6953C19.9453 12.5391 19.8516 13.125 19.6641 13.4531C19.4922 13.7812 19.2422 13.9453 18.9141 13.9453H1.03125C0.703125 13.9453 0.445312 13.7812 0.257812 13.4531C0.0859375 13.125 0 12.5391 0 11.6953C0 10.8984 0.078125 10.3281 0.234375 9.98438C0.40625 9.625 0.671875 9.44531 1.03125 9.44531H18.9141C19.2734 9.44531 19.5312 9.625 19.6875 9.98438C19.8594 10.3281 19.9453 10.8984 19.9453 11.6953Z" fill="white"/>
</svg>
