<svg width="20" height="20" viewBox="0 0 20 20" fill="none" xmlns="http://www.w3.org/2000/svg">
<path d="M13.1016 9.98438L19.5938 3.51562C19.7031 3.40625 19.7812 3.28906 19.8281 3.16406C19.875 3.03906 19.8984 2.91406 19.8984 2.78906C19.8984 2.50781 19.7891 2.20312 19.5703 1.875C19.3672 1.54688 19.1172 1.24219 18.8203 0.960938C18.5391 0.695312 18.2422 0.46875 17.9297 0.28125C17.6172 0.09375 17.3594 0 17.1562 0C17.0312 0 16.9141 0.0234375 16.8047 0.0703125C16.7109 0.132812 16.6172 0.203125 16.5234 0.28125L9.98438 6.84375L3.46875 0.375C3.375 0.28125 3.26562 0.203125 3.14062 0.140625C3.01562 0.09375 2.88281 0.0703125 2.74219 0.0703125C2.46094 0.0703125 2.15625 0.171875 1.82812 0.375C1.51562 0.59375 1.21875 0.84375 0.9375 1.125C0.671875 1.42188 0.445312 1.72656 0.257812 2.03906C0.0859375 2.35156 0 2.60938 0 2.8125C0 3.04688 0.09375 3.25781 0.28125 3.44531L6.84375 9.98438L0.351562 16.5C0.273438 16.5938 0.203125 16.7031 0.140625 16.8281C0.078125 16.9531 0.046875 17.0781 0.046875 17.2031C0.046875 17.5 0.148438 17.8047 0.351562 18.1172C0.570312 18.4453 0.820312 18.7422 1.10156 19.0078C1.39844 19.2891 1.70312 19.5234 2.01562 19.7109C2.32812 19.8984 2.59375 19.9922 2.8125 19.9922C3.04688 19.9922 3.25781 19.8906 3.44531 19.6875L9.98438 13.125L16.4766 19.6172C16.5703 19.7109 16.6719 19.7812 16.7812 19.8281C16.9062 19.8906 17.0469 19.9219 17.2031 19.9219C17.4844 19.9219 17.7891 19.8125 18.1172 19.5938C18.4453 19.375 18.7422 19.1172 19.0078 18.8203C19.2891 18.5391 19.5156 18.2422 19.6875 17.9297C19.875 17.6328 19.9688 17.3828 19.9688 17.1797C19.9688 17.0859 19.9453 16.9766 19.8984 16.8516C19.8672 16.7422 19.7969 16.6406 19.6875 16.5469L13.1016 9.98438Z" fill="white"/>
</svg>
