<svg width="33" height="32" viewBox="0 0 33 32" fill="none" xmlns="http://www.w3.org/2000/svg">
<path d="M14.0391 8.29688C14.0391 9.53125 13.8984 10.6484 13.6172 11.6484C13.3516 12.6328 12.9297 13.4766 12.3516 14.1797C11.7734 14.8828 11.0312 15.4297 10.125 15.8203C9.23438 16.2109 8.16406 16.4062 6.91406 16.4062C5.58594 16.4062 4.47656 16.2109 3.58594 15.8203C2.69531 15.4297 1.98438 14.8906 1.45312 14.2031C0.921875 13.5 0.546875 12.6641 0.328125 11.6953C0.109375 10.7266 0 9.65625 0 8.48438C0 7.3125 0.132812 6.24219 0.398438 5.27344C0.664062 4.28906 1.07812 3.4375 1.64062 2.71875C2.21875 2 2.95312 1.44531 3.84375 1.05469C4.75 0.648438 5.83594 0.445312 7.10156 0.445312C8.49219 0.445312 9.63281 0.65625 10.5234 1.07812C11.4297 1.5 12.1406 2.07031 12.6562 2.78906C13.1719 3.50781 13.5312 4.34375 13.7344 5.29688C13.9375 6.25 14.0391 7.25 14.0391 8.29688ZM9.39844 8.46094C9.39844 7.60156 9.35156 6.875 9.25781 6.28125C9.16406 5.67188 9.02344 5.17969 8.83594 4.80469C8.64844 4.42969 8.39844 4.15625 8.08594 3.98438C7.77344 3.8125 7.40625 3.72656 6.98438 3.72656C6.59375 3.72656 6.25 3.8125 5.95312 3.98438C5.65625 4.14062 5.40625 4.40625 5.20312 4.78125C5.01562 5.14062 4.875 5.61719 4.78125 6.21094C4.6875 6.78906 4.64062 7.5 4.64062 8.34375C4.64062 9.3125 4.69531 10.1094 4.80469 10.7344C4.91406 11.3438 5.07031 11.8281 5.27344 12.1875C5.47656 12.5312 5.72656 12.7734 6.02344 12.9141C6.32031 13.0391 6.66406 13.1016 7.05469 13.1016C7.50781 13.1016 7.88281 13.0156 8.17969 12.8438C8.47656 12.6562 8.71094 12.375 8.88281 12C9.07031 11.625 9.20312 11.1484 9.28125 10.5703C9.35938 9.97656 9.39844 9.27344 9.39844 8.46094ZM32.3203 23.4609C32.3203 24.6953 32.1797 25.8125 31.8984 26.8125C31.6328 27.7969 31.2109 28.6406 30.6328 29.3438C30.0547 30.0469 29.3125 30.5938 28.4062 30.9844C27.5156 31.375 26.4453 31.5703 25.1953 31.5703C23.8672 31.5703 22.7578 31.375 21.8672 30.9844C20.9766 30.5938 20.2656 30.0547 19.7344 29.3672C19.2031 28.6641 18.8281 27.8281 18.6094 26.8594C18.3906 25.8906 18.2812 24.8203 18.2812 23.6484C18.2812 22.4766 18.4141 21.4062 18.6797 20.4375C18.9453 19.4531 19.3594 18.6016 19.9219 17.8828C20.5 17.1641 21.2344 16.6094 22.125 16.2188C23.0312 15.8125 24.1172 15.6094 25.3828 15.6094C26.7734 15.6094 27.9141 15.8203 28.8047 16.2422C29.7109 16.6641 30.4219 17.2344 30.9375 17.9531C31.4531 18.6719 31.8125 19.5078 32.0156 20.4609C32.2188 21.4141 32.3203 22.4141 32.3203 23.4609ZM27.6797 23.625C27.6797 22.7656 27.6328 22.0391 27.5391 21.4453C27.4453 20.8359 27.3047 20.3438 27.1172 19.9688C26.9297 19.5938 26.6797 19.3203 26.3672 19.1484C26.0547 18.9766 25.6875 18.8906 25.2656 18.8906C24.875 18.8906 24.5312 18.9766 24.2344 19.1484C23.9375 19.3047 23.6875 19.5703 23.4844 19.9453C23.2969 20.3047 23.1562 20.7812 23.0625 21.375C22.9688 21.9531 22.9219 22.6641 22.9219 23.5078C22.9219 24.4766 22.9766 25.2734 23.0859 25.8984C23.1953 26.5078 23.3516 26.9922 23.5547 27.3516C23.7578 27.6953 24.0078 27.9375 24.3047 28.0781C24.6016 28.2031 24.9453 28.2656 25.3359 28.2656C25.7891 28.2656 26.1641 28.1797 26.4609 28.0078C26.7578 27.8203 26.9922 27.5391 27.1641 27.1641C27.3516 26.7891 27.4844 26.3125 27.5625 25.7344C27.6406 25.1406 27.6797 24.4375 27.6797 23.625ZM7.64062 31.0078C7.5 31.1953 7.35156 31.3438 7.19531 31.4531C7.05469 31.5781 6.875 31.6797 6.65625 31.7578C6.4375 31.8359 6.17188 31.8906 5.85938 31.9219C5.54688 31.9531 5.16406 31.9688 4.71094 31.9688C4.19531 31.9688 3.78125 31.9375 3.46875 31.875C3.17188 31.8125 2.95312 31.7188 2.8125 31.5938C2.6875 31.4688 2.63281 31.3281 2.64844 31.1719C2.67969 31 2.78125 30.7969 2.95312 30.5625L24.5625 0.960938C24.7031 0.789062 24.8438 0.640625 24.9844 0.515625C25.125 0.390625 25.3047 0.289062 25.5234 0.210938C25.7578 0.132812 26.0312 0.078125 26.3438 0.046875C26.6562 0.015625 27.0391 0 27.4922 0C28.0078 0 28.4141 0.03125 28.7109 0.09375C29.0234 0.15625 29.2422 0.25 29.3672 0.375C29.5078 0.5 29.5625 0.648438 29.5312 0.820312C29.5 0.992188 29.4062 1.1875 29.25 1.40625L7.64062 31.0078Z" fill="white"/>
</svg>
