<svg width="22" height="23" viewBox="0 0 22 23" fill="none" xmlns="http://www.w3.org/2000/svg">
<path d="M21.4688 11.2734C21.4688 11.7109 21.4453 12.0781 21.3984 12.375C21.3516 12.6719 21.2812 12.9141 21.1875 13.1016C21.0938 13.2734 20.9844 13.3984 20.8594 13.4766C20.7344 13.5547 20.6016 13.5938 20.4609 13.5938H13.1719V21.5391C13.1719 21.6953 13.1328 21.8359 13.0547 21.9609C12.9766 22.0703 12.8438 22.1719 12.6562 22.2656C12.4688 22.3438 12.2188 22.4062 11.9062 22.4531C11.5938 22.5 11.2031 22.5234 10.7344 22.5234C10.2656 22.5234 9.875 22.5 9.5625 22.4531C9.25 22.4062 9 22.3438 8.8125 22.2656C8.625 22.1719 8.48438 22.0703 8.39062 21.9609C8.3125 21.8359 8.27344 21.6953 8.27344 21.5391V13.5938H1.00781C0.867188 13.5938 0.734375 13.5547 0.609375 13.4766C0.5 13.3984 0.398438 13.2734 0.304688 13.1016C0.210938 12.9141 0.132812 12.6719 0.0703125 12.375C0.0234375 12.0781 0 11.7109 0 11.2734C0 10.8516 0.0234375 10.4922 0.0703125 10.1953C0.117188 9.88281 0.179688 9.64062 0.257812 9.46875C0.351562 9.28125 0.453125 9.14844 0.5625 9.07031C0.671875 8.99219 0.796875 8.95312 0.9375 8.95312H8.27344V1.03125C8.27344 0.875 8.3125 0.734375 8.39062 0.609375C8.48438 0.46875 8.625 0.359375 8.8125 0.28125C9 0.1875 9.25 0.117188 9.5625 0.0703125C9.875 0.0234375 10.2656 0 10.7344 0C11.2031 0 11.5938 0.0234375 11.9062 0.0703125C12.2188 0.117188 12.4688 0.1875 12.6562 0.28125C12.8438 0.359375 12.9766 0.46875 13.0547 0.609375C13.1328 0.734375 13.1719 0.875 13.1719 1.03125V8.95312H20.5312C20.6562 8.95312 20.7734 8.99219 20.8828 9.07031C21.0078 9.14844 21.1094 9.28125 21.1875 9.46875C21.2812 9.64062 21.3516 9.88281 21.3984 10.1953C21.4453 10.4922 21.4688 10.8516 21.4688 11.2734Z" fill="white"/>
</svg>
